<svg width="192" height="192" viewBox="0 0 192 192" fill="none" xmlns="http://www.w3.org/2000/svg">
<g clip-path="url(#clip0_8060_17690)">
<rect width="192" height="192" fill="#37453B"/>
<g opacity="0.1">
<path d="M192 304H0V303H192V304Z" fill="#F3F6F4"/>
<path d="M192 300H0V299H192V300Z" fill="#F3F6F4"/>
<path d="M192 296H0V295H192V296Z" fill="#F3F6F4"/>
<path d="M192 292H0V291H192V292Z" fill="#F3F6F4"/>
<path d="M192 288H0V287H192V288Z" fill="#F3F6F4"/>
<path d="M192 284H0V283H192V284Z" fill="#F3F6F4"/>
<path d="M192 280H0V279H192V280Z" fill="#F3F6F4"/>
<path d="M192 276H0V275H192V276Z" fill="#F3F6F4"/>
<path d="M192 272H0V271H192V272Z" fill="#F3F6F4"/>
<path d="M192 268H0V267H192V268Z" fill="#F3F6F4"/>
<path d="M192 264H0V263H192V264Z" fill="#F3F6F4"/>
<path d="M192 260H0V259H192V260Z" fill="#F3F6F4"/>
<path d="M192 256H0V255H192V256Z" fill="#F3F6F4"/>
<path d="M192 252H0V251H192V252Z" fill="#F3F6F4"/>
<path d="M192 248H0V247H192V248Z" fill="#F3F6F4"/>
<path d="M192 244H0V243H192V244Z" fill="#F3F6F4"/>
<path d="M192 240H0V239H192V240Z" fill="#F3F6F4"/>
<path d="M192 236H0V235H192V236Z" fill="#F3F6F4"/>
<path d="M192 232H0V231H192V232Z" fill="#F3F6F4"/>
<path d="M192 228H0V227H192V228Z" fill="#F3F6F4"/>
<path d="M192 224H0V223H192V224Z" fill="#F3F6F4"/>
<path d="M192 220H0V219H192V220Z" fill="#F3F6F4"/>
<path d="M192 216H0V215H192V216Z" fill="#F3F6F4"/>
<path d="M192 212H0V211H192V212Z" fill="#F3F6F4"/>
<path d="M192 208H0V207H192V208Z" fill="#F3F6F4"/>
<path d="M192 204H0V203H192V204Z" fill="#F3F6F4"/>
<path d="M192 200H0V199H192V200Z" fill="#F3F6F4"/>
<path d="M192 196H0V195H192V196Z" fill="#F3F6F4"/>
<path d="M192 192H0V191H192V192Z" fill="#F3F6F4"/>
<path d="M192 188H0V187H192V188Z" fill="#F3F6F4"/>
<path d="M192 184H0V183H192V184Z" fill="#F3F6F4"/>
<path d="M192 180H0V179H192V180Z" fill="#F3F6F4"/>
<path d="M192 176H0V175H192V176Z" fill="#F3F6F4"/>
<path d="M192 172H0V171H192V172Z" fill="#F3F6F4"/>
<path d="M192 168H0V167H192V168Z" fill="#F3F6F4"/>
<path d="M192 164H0V163H192V164Z" fill="#F3F6F4"/>
<path d="M192 160H0V159H192V160Z" fill="#F3F6F4"/>
<path d="M192 156H0V155H192V156Z" fill="#F3F6F4"/>
<path d="M192 152H0V151H192V152Z" fill="#F3F6F4"/>
<path d="M192 148H0V147H192V148Z" fill="#F3F6F4"/>
<path d="M192 144H0V143H192V144Z" fill="#F3F6F4"/>
<path d="M192 140H0V139H192V140Z" fill="#F3F6F4"/>
<path d="M192 136H0V135H192V136Z" fill="#F3F6F4"/>
<path d="M192 132H0V131H192V132Z" fill="#F3F6F4"/>
<path d="M192 128H0V127H192V128Z" fill="#F3F6F4"/>
<path d="M192 124H0V123H192V124Z" fill="#F3F6F4"/>
<path d="M192 120H0V119H192V120Z" fill="#F3F6F4"/>
<path d="M192 116H0V115H192V116Z" fill="#F3F6F4"/>
<path d="M192 112H0V111H192V112Z" fill="#F3F6F4"/>
<path d="M192 108H0V107H192V108Z" fill="#F3F6F4"/>
<path d="M192 104H0V103H192V104Z" fill="#F3F6F4"/>
<path d="M192 100H0V99H192V100Z" fill="#F3F6F4"/>
<path d="M192 96H0V95H192V96Z" fill="#F3F6F4"/>
<path d="M192 92H0V91H192V92Z" fill="#F3F6F4"/>
<path d="M192 88H0V87H192V88Z" fill="#F3F6F4"/>
<path d="M192 84H0V83H192V84Z" fill="#F3F6F4"/>
<path d="M192 80H0V79H192V80Z" fill="#F3F6F4"/>
<path d="M192 76H0V75H192V76Z" fill="#F3F6F4"/>
<path d="M192 72H0V71H192V72Z" fill="#F3F6F4"/>
<path d="M192 68H0V67H192V68Z" fill="#F3F6F4"/>
<path d="M192 64H0V63H192V64Z" fill="#F3F6F4"/>
<path d="M192 60H0V59H192V60Z" fill="#F3F6F4"/>
<path d="M192 56H0V55H192V56Z" fill="#F3F6F4"/>
<path d="M192 52H0V51H192V52Z" fill="#F3F6F4"/>
<path d="M192 48H0V47H192V48Z" fill="#F3F6F4"/>
<path d="M192 44H0V43H192V44Z" fill="#F3F6F4"/>
<path d="M192 40H0V39H192V40Z" fill="#F3F6F4"/>
<path d="M192 36H0V35H192V36Z" fill="#F3F6F4"/>
<path d="M192 32H0V31H192V32Z" fill="#F3F6F4"/>
<path d="M192 28H0V27H192V28Z" fill="#F3F6F4"/>
<path d="M192 24H0V23H192V24Z" fill="#F3F6F4"/>
<path d="M192 20H0V19H192V20Z" fill="#F3F6F4"/>
<path d="M192 16H0V15H192V16Z" fill="#F3F6F4"/>
<path d="M192 12H0V11H192V12Z" fill="#F3F6F4"/>
<path d="M192 8H0V7H192V8Z" fill="#F3F6F4"/>
<path d="M192 4H0V3H192V4Z" fill="#F3F6F4"/>
</g>
<path d="M86.341 144.138H67.4851V140.276H86.341V144.138Z" fill="#C8D2C9"/>
<path d="M116.512 132.553H112.741V140.276H127.825V144.138H108.969V140.276H105.198V132.553H108.969V128.691H116.512V132.553Z" fill="#C8D2C9"/>
<path d="M67.4851 132.553H63.7137V136.414H67.4851V140.276H59.9424V136.414H56.171V128.691H59.9424V124.829H67.4851V132.553Z" fill="#C8D2C9"/>
<path d="M142.911 78.4846H146.682V82.3467H150.453V93.932H146.682V101.656H142.911V105.518H131.597V101.656H139.139V93.932H142.911V82.3467H139.139V78.4846H135.368V82.3467H131.597V86.2088H127.825V93.932H124.055V101.656H120.283V105.518H116.512V113.242H112.741V120.966H108.969V124.829H105.198V128.691H101.427V132.553H97.6552V136.414H93.8838V140.276H86.341V136.414H90.1124V132.553H93.8838V128.691H97.6552V124.829L101.427 124.828L101.427 117.104H105.198V109.38H108.969V101.656H112.741V97.794H116.512V93.932H120.283V86.2088H124.055V82.3467H127.825V78.4846H131.597V74.6226H142.911V78.4846Z" fill="#C8D2C9"/>
<path d="M139.139 113.242H142.911V128.691H139.139V136.414H135.368V140.276H127.825V136.414H131.597V128.691H135.368V117.104H131.597V109.38H139.139V113.242Z" fill="#C8D2C9"/>
<path d="M52.3996 93.931H59.9424V97.7931H48.6282V109.379H56.171V113.241H37.3141V109.379H44.8569V97.7931H37.3141V93.931H48.6282V86.2069H52.3996V93.931Z" fill="#C8D2C9"/>
<path d="M71.2565 47.5862H75.0278V63.0345H78.7992V74.6207H82.5706V78.4846H90.1124V82.3448H82.5706V86.2069H86.342V97.7931H90.1133V109.379H97.6561V113.241H75.0278V109.379H82.5706V97.7931H78.7992V86.2069H75.0278V74.6207H71.2565V63.0345H67.4851V51.4483H63.7137V39.8621H67.4851V36H71.2565V47.5862Z" fill="#C8D2C9"/>
<path d="M131.597 109.38H120.283V105.518H131.597V109.38Z" fill="#C8D2C9"/>
<path d="M37.3141 93.931H29.7714V90.069H37.3141V93.931Z" fill="#C8D2C9"/>
<path d="M67.4851 93.931H59.9424V90.069H67.4851V93.931Z" fill="#C8D2C9"/>
<path d="M29.7714 90.069H26V82.3448H29.7714V90.069Z" fill="#C8D2C9"/>
<path d="M75.0278 90.069H67.4851V86.2069H75.0278V90.069Z" fill="#C8D2C9"/>
<path d="M56.171 86.2069H52.3996V74.6207H56.171V86.2069Z" fill="#C8D2C9"/>
<path d="M37.3141 82.3448H29.7714V78.4828H37.3141V82.3448Z" fill="#C8D2C9"/>
<path d="M97.6552 78.4846H90.1124V74.6226H97.6552V78.4846Z" fill="#C8D2C9"/>
<path d="M131.597 74.6226H97.6552V70.7605H131.597V74.6226Z" fill="#C8D2C9"/>
<path d="M150.453 74.6226H142.911V70.7605H150.453V74.6226Z" fill="#C8D2C9"/>
<path d="M59.9424 74.6207H56.171V63.0345H59.9424V74.6207Z" fill="#C8D2C9"/>
<path d="M63.7137 63.0345H59.9424V51.4483H63.7137V63.0345Z" fill="#C8D2C9"/>
</g>
<defs>
<clipPath id="clip0_8060_17690">
<rect width="192" height="192" fill="white"/>
</clipPath>
</defs>
</svg>
